<?xml version="1.0" standalone="no"?><!DOCTYPE svg PUBLIC "-//W3C//DTD SVG 1.1//EN" "http://www.w3.org/Graphics/SVG/1.1/DTD/svg11.dtd"><svg class="icon" width="200px" height="200.00px" viewBox="0 0 1024 1024" version="1.1" xmlns="http://www.w3.org/2000/svg"><path d="M704 402.133333c-8.533333 0-14.933333-6.4-16-14.933333-3.2-41.6-20.266667-80-46.933333-110.933333-5.333333-6.4-5.333333-17.066667 2.133333-22.4 6.4-5.333333 17.066667-5.333333 22.4 2.133333 30.933333 36.266667 49.066667 81.066667 54.4 129.066667 1.066667 8.533333-5.333333 17.066667-14.933333 17.066666H704z" fill="#777777" /><path d="M793.6 406.4c0-168.533333-137.6-306.133333-306.133333-306.133333S181.333333 237.866667 181.333333 406.4c0 128 78.933333 236.8 189.866667 282.666667H352c-8.533333 0-16 7.466667-16 16v2.133333c0 8.533333 7.466667 16 16 16h272c8.533333 0 16-7.466667 16-16v-2.133333c0-8.533333-7.466667-16-16-16h-19.2C714.666667 643.2 793.6 533.333333 793.6 406.4zM487.466667 680.533333C337.066667 680.533333 213.333333 556.8 213.333333 406.4s122.666667-274.133333 274.133334-274.133333 274.133333 122.666667 274.133333 274.133333-122.666667 274.133333-274.133333 274.133333zM580.266667 776.533333H395.733333c-8.533333 0-16 7.466667-16 16v2.133334c0 8.533333 7.466667 16 16 16h184.533334c8.533333 0 16-7.466667 16-16v-2.133334c0-9.6-7.466667-16-16-16zM537.6 866.133333H437.333333c-8.533333 0-16 7.466667-16 16v2.133334c0 8.533333 7.466667 16 16 16h100.266667c8.533333 0 16-7.466667 16-16v-2.133334c0-8.533333-7.466667-16-16-16z" fill="#777777" /></svg>