<?xml version="1.0" standalone="no"?><!DOCTYPE svg PUBLIC "-//W3C//DTD SVG 1.1//EN" "http://www.w3.org/Graphics/SVG/1.1/DTD/svg11.dtd"><svg class="icon" width="200px" height="200.00px" viewBox="0 0 1024 1024" version="1.1" xmlns="http://www.w3.org/2000/svg"><path d="M866.133333 958.933333H157.866667c-38.4 0-69.333333-30.933333-69.333334-69.333333V410.666667c0-22.4 10.666667-42.666667 28.8-56.533334L470.4 77.866667c24.533333-18.133333 57.6-18.133333 82.133333 0l355.2 276.266666c17.066667 12.8 27.733333 34.133333 27.733334 55.466667v478.933333c1.066667 39.466667-30.933333 70.4-69.333334 70.4zM512 97.066667c-7.466667 0-16 2.133333-22.4 7.466666L135.466667 379.733333c-9.6 7.466667-16 18.133333-16 30.933334v478.933333c0 20.266667 17.066667 37.333333 37.333333 37.333333h709.333333c20.266667 0 37.333333-17.066667 37.333334-37.333333V410.666667c0-11.733333-5.333333-23.466667-14.933334-29.866667L533.333333 103.466667c-6.4-4.266667-13.866667-6.4-21.333333-6.4z" fill="#777777" /><path d="M848 505.6c-8.533333 0-16-7.466667-16-16v-45.866667c0-11.733333-5.333333-23.466667-14.933333-29.866666l-64-48c-7.466667-5.333333-8.533333-14.933333-3.2-22.4s14.933333-8.533333 22.4-3.2l62.933333 48c18.133333 12.8 27.733333 34.133333 27.733333 55.466666v45.866667c1.066667 8.533333-6.4 16-14.933333 16zM625.066667 748.8H398.933333c-8.533333 0-16-7.466667-16-16s7.466667-16 16-16h226.133334c8.533333 0 16 7.466667 16 16s-7.466667 16-16 16z" fill="#777777" /></svg>