<?xml version="1.0" standalone="no"?><!DOCTYPE svg PUBLIC "-//W3C//DTD SVG 1.1//EN" "http://www.w3.org/Graphics/SVG/1.1/DTD/svg11.dtd"><svg class="icon" width="200px" height="200.00px" viewBox="0 0 1024 1024" version="1.1" xmlns="http://www.w3.org/2000/svg"><path d="M654.933333 320c0 8.533333 7.466667 16 16 16s16-7.466667 16-16c0-37.333333-11.733333-73.6-34.133333-103.466667-5.333333-7.466667-14.933333-8.533333-22.4-3.2-7.466667 5.333333-8.533333 14.933333-3.2 22.4 18.133333 24.533333 27.733333 54.4 27.733333 84.266667z" fill="#777777" /><path d="M667.733333 494.933333c48-42.666667 77.866667-105.6 77.866667-174.933333 0-129.066667-104.533333-234.666667-234.666667-234.666667s-234.666667 105.6-234.666666 234.666667c0 69.333333 29.866667 131.2 77.866666 174.933333-108.8 57.6-178.133333 170.666667-178.133333 295.466667 0 33.066667 19.2 80 109.866667 114.133333 59.733333 21.333333 138.666667 34.133333 224 34.133334 166.4 0 333.866667-45.866667 333.866666-147.2 2.133333-125.866667-67.2-238.933333-176-296.533334zM309.333333 320c0-112 90.666667-202.666667 202.666667-202.666667s202.666667 90.666667 202.666667 202.666667c0 69.333333-35.2 130.133333-87.466667 166.4-1.066667 1.066667-3.2 2.133333-4.266667 3.2-4.266667 2.133333-7.466667 4.266667-11.733333 7.466667-1.066667 1.066667-3.2 2.133333-4.266667 2.133333l-12.8 6.4c-1.066667 0-2.133333 1.066667-3.2 1.066667-5.333333 2.133333-11.733333 4.266667-17.066666 6.4h-1.066667c-5.333333 2.133333-10.666667 3.2-16 4.266666-2.133333 0-3.2 1.066667-5.333333 1.066667-4.266667 1.066667-8.533333 1.066667-13.866667 2.133333-2.133333 0-3.2 0-5.333333 1.066667-7.466667 1.066667-13.866667 1.066667-20.266667 1.066667s-12.8 0-19.2-1.066667c-2.133333 0-3.2 0-5.333333-1.066667-4.266667-1.066667-9.6-1.066667-13.866667-2.133333-2.133333 0-3.2-1.066667-5.333333-1.066667-5.333333-1.066667-10.666667-2.133333-16-4.266666h-1.066667c-6.4-2.133333-11.733333-4.266667-17.066667-6.4-1.066667 0-2.133333-1.066667-3.2-1.066667l-12.8-6.4c-1.066667-1.066667-3.2-2.133333-4.266666-2.133333-4.266667-2.133333-7.466667-4.266667-11.733334-7.466667-1.066667-1.066667-3.2-2.133333-4.266666-3.2-53.333333-36.266667-88.533333-97.066667-88.533334-166.4z m202.666667 585.6c-146.133333 0-301.866667-40.533333-301.866667-115.2 0-117.333333 68.266667-224 173.866667-273.066667 1.066667 1.066667 2.133333 1.066667 3.2 2.133334 3.2 2.133333 5.333333 3.2 8.533333 5.333333 1.066667 1.066667 3.2 2.133333 4.266667 2.133333 4.266667 2.133333 7.466667 4.266667 11.733333 6.4 2.133333 1.066667 3.2 1.066667 5.333334 2.133334 3.2 1.066667 5.333333 2.133333 8.533333 3.2 2.133333 1.066667 3.2 1.066667 5.333333 2.133333 4.266667 1.066667 8.533333 3.2 12.8 4.266667 2.133333 0 3.2 1.066667 5.333334 1.066666 3.2 1.066667 6.4 2.133333 9.6 2.133334 2.133333 0 3.2 1.066667 5.333333 1.066666 4.266667 1.066667 9.6 2.133333 13.866667 2.133334h3.2c4.266667 0 7.466667 1.066667 11.733333 1.066666h4.266667c4.266667 2.133333 9.6 2.133333 14.933333 2.133334s10.666667 0 14.933333-1.066667h4.266667c4.266667 0 7.466667-1.066667 11.733333-1.066667h3.2c4.266667-1.066667 9.6-1.066667 13.866667-2.133333 2.133333 0 3.2-1.066667 5.333333-1.066667 3.2-1.066667 6.4-2.133333 9.6-2.133333 2.133333 0 3.2-1.066667 5.333334-1.066667 4.266667-1.066667 8.533333-3.2 12.8-4.266666 2.133333-1.066667 3.2-1.066667 5.333333-2.133334 3.2-1.066667 5.333333-2.133333 8.533333-3.2 2.133333-1.066667 3.2-1.066667 5.333334-2.133333 4.266667-2.133333 7.466667-4.266667 11.733333-6.4 1.066667-1.066667 3.2-2.133333 4.266667-2.133333 3.2-2.133333 5.333333-3.2 8.533333-5.333334 1.066667-1.066667 2.133333-1.066667 3.2-2.133333 105.6 49.066667 173.866667 155.733333 173.866667 273.066667 0 73.6-155.733333 114.133333-301.866667 114.133333z" fill="#777777" /></svg>