<?xml version="1.0" standalone="no"?><!DOCTYPE svg PUBLIC "-//W3C//DTD SVG 1.1//EN" "http://www.w3.org/Graphics/SVG/1.1/DTD/svg11.dtd"><svg class="icon" width="200px" height="200.00px" viewBox="0 0 1024 1024" version="1.1" xmlns="http://www.w3.org/2000/svg"><path d="M871.466667 371.2c-7.466667 0-13.866667-5.333333-16-12.8-11.733333-50.133333-44.8-93.866667-90.666667-118.4-7.466667-4.266667-10.666667-13.866667-6.4-21.333333s13.866667-10.666667 21.333333-6.4c54.4 28.8 92.8 80 106.666667 139.733333 2.133333 8.533333-3.2 17.066667-11.733333 19.2h-3.2z" fill="#777777" /><path d="M512 891.733333c-4.266667 0-7.466667-1.066667-10.666667-4.266666L152.533333 566.4c-12.8-11.733333-25.6-25.6-36.266666-39.466667v-1.066666c-30.933333-42.666667-46.933333-92.8-46.933334-145.066667 0-136.533333 110.933333-248.533333 248.533334-248.533333 76.8 0 148.266667 35.2 195.2 94.933333 46.933333-59.733333 118.4-94.933333 195.2-94.933333 136.533333 0 248.533333 110.933333 248.533333 248.533333 0 52.266667-16 101.333333-46.933333 144 0 1.066667-1.066667 1.066667-1.066667 2.133333-10.666667 13.866667-22.4 27.733333-36.266667 39.466667L522.666667 887.466667c-3.2 2.133333-6.4 4.266667-10.666667 4.266666z m-370.133333-384c9.6 12.8 20.266667 24.533333 32 35.2L512 853.333333l338.133333-310.4c11.733333-10.666667 22.4-22.4 32-35.2 26.666667-37.333333 41.6-81.066667 41.6-126.933333 0-119.466667-97.066667-216.533333-216.533333-216.533333-73.6 0-140.8 37.333333-181.333333 99.2-6.4 9.6-21.333333 9.6-26.666667 0-40.533333-61.866667-107.733333-99.2-181.333333-99.2-119.466667 0-216.533333 97.066667-216.533334 216.533333-1.066667 45.866667 13.866667 89.6 40.533334 126.933333z" fill="#777777" /></svg>