<?xml version="1.0" standalone="no"?><!DOCTYPE svg PUBLIC "-//W3C//DTD SVG 1.1//EN" "http://www.w3.org/Graphics/SVG/1.1/DTD/svg11.dtd"><svg class="icon" width="200px" height="200.00px" viewBox="0 0 1024 1024" version="1.1" xmlns="http://www.w3.org/2000/svg"><path d="M928 579.2c27.733333-38.4 43.733333-85.333333 43.733333-136.533333 0-128-104.533333-232.533333-232.533333-232.533334-82.133333 0-153.6 42.666667-195.2 105.6-41.6-64-113.066667-105.6-195.2-105.6-128 0-232.533333 104.533333-232.533333 232.533334 0 51.2 17.066667 98.133333 43.733333 136.533333 9.6 13.866667 21.333333 26.666667 34.133333 37.333333l348.8 321.066667 348.8-321.066667c14.933333-10.666667 26.666667-23.466667 36.266667-37.333333z m-382.933333-9.6M134.4 92.8l-19.2 1.066667-1.066667-19.2c0-1.066667-1.066667-2.133333-3.2-2.133334h-2.133333c-1.066667 0-2.133333 2.133333-2.133333 3.2l1.066666 19.2-18.133333 2.133334c-1.066667 0-2.133333 1.066667-2.133333 3.2v2.133333c0 1.066667 1.066667 2.133333 3.2 2.133333l19.2-1.066666 1.066666 19.2c0 1.066667 1.066667 2.133333 3.2 2.133333h2.133334c1.066667 0 2.133333-1.066667 2.133333-3.2L117.333333 102.4l19.2-1.066667c1.066667 0 2.133333-1.066667 2.133334-3.2V96c-1.066667-2.133333-2.133333-3.2-4.266667-3.2zM208 798.933333l8.533333-16c0-1.066667 0-2.133333-1.066666-2.133333L213.333333 778.666667c-1.066667 0-2.133333 0-2.133333 1.066666l-8.533333 16-16-8.533333c-1.066667 0-2.133333 0-2.133334 1.066667l-3.2 3.2c0 1.066667 0 2.133333 1.066667 2.133333l16 8.533333-8.533333 16c0 1.066667 0 2.133333 1.066666 2.133334l2.133334 1.066666c1.066667 0 2.133333 0 2.133333-1.066666l8.533333-16 16 8.533333c1.066667 0 2.133333 0 2.133334-1.066667l1.066666-2.133333c0-1.066667 0-2.133333-1.066666-2.133333l-13.866667-8.533334zM910.933333 107.733333l-11.733333 1.066667-1.066667-11.733333c0-1.066667-1.066667-2.133333-2.133333-2.133334s-2.133333 1.066667-2.133333 2.133334l1.066666 11.733333-11.733333 1.066667c-1.066667 0-2.133333 1.066667-2.133333 2.133333s1.066667 2.133333 2.133333 2.133333l11.733333-1.066666 1.066667 11.733333c0 1.066667 1.066667 2.133333 2.133333 2.133333s2.133333-1.066667 2.133334-2.133333l-1.066667-11.733333 11.733333-1.066667c1.066667 0 2.133333-1.066667 2.133334-2.133333s0-2.133333-2.133334-2.133334z" fill="#71bcff" /><path d="M101.333333 164.266667m-17.066666 0a17.066667 17.066667 0 1 0 34.133333 0 17.066667 17.066667 0 1 0-34.133333 0Z" fill="#71bcff" /><path d="M138.666667 803.2m-8.533334 0a8.533333 8.533333 0 1 0 17.066667 0 8.533333 8.533333 0 1 0-17.066667 0Z" fill="#71bcff" /><path d="M834.133333 89.6m-11.733333 0a11.733333 11.733333 0 1 0 23.466667 0 11.733333 11.733333 0 1 0-23.466667 0Z" fill="#71bcff" /><path d="M912 179.2m-7.466667 0a7.466667 7.466667 0 1 0 14.933334 0 7.466667 7.466667 0 1 0-14.933334 0Z" fill="#71bcff" /><path d="M871.466667 400c-7.466667 0-13.866667-5.333333-16-12.8-11.733333-50.133333-44.8-93.866667-90.666667-118.4-7.466667-4.266667-10.666667-13.866667-6.4-21.333333s13.866667-10.666667 21.333333-6.4c54.4 28.8 92.8 80 106.666667 139.733333 2.133333 8.533333-3.2 17.066667-11.733333 19.2h-3.2z" fill="#ffffff" /><path d="M512 920.533333c-4.266667 0-7.466667-1.066667-10.666667-4.266666L152.533333 595.2c-12.8-11.733333-25.6-25.6-36.266666-39.466667V554.666667C85.333333 512 68.266667 461.866667 68.266667 409.6c0-136.533333 110.933333-248.533333 248.533333-248.533333 76.8 0 148.266667 35.2 195.2 94.933333 46.933333-59.733333 118.4-94.933333 195.2-94.933333 136.533333 0 248.533333 110.933333 248.533333 248.533333 0 52.266667-16 101.333333-46.933333 144 0 1.066667-1.066667 1.066667-1.066667 2.133333-10.666667 13.866667-22.4 27.733333-36.266666 39.466667L522.666667 916.266667c-3.2 2.133333-6.4 4.266667-10.666667 4.266666z m-370.133333-384c9.6 12.8 20.266667 24.533333 32 35.2L512 882.133333l338.133333-310.4c11.733333-10.666667 22.4-22.4 32-35.2 26.666667-37.333333 41.6-81.066667 41.6-126.933333 0-119.466667-97.066667-216.533333-216.533333-216.533333-73.6 0-140.8 37.333333-181.333333 99.2-6.4 9.6-21.333333 9.6-26.666667 0-40.533333-61.866667-107.733333-99.2-181.333333-99.2-119.466667 0-216.533333 97.066667-216.533334 216.533333-1.066667 45.866667 13.866667 89.6 40.533334 126.933333z" fill="#3a3a3a" /></svg>