<?xml version="1.0" standalone="no"?><!DOCTYPE svg PUBLIC "-//W3C//DTD SVG 1.1//EN" "http://www.w3.org/Graphics/SVG/1.1/DTD/svg11.dtd"><svg class="icon" width="200px" height="200.00px" viewBox="0 0 1024 1024" version="1.1" xmlns="http://www.w3.org/2000/svg"><path d="M893 401.1v444.6c0 25.2-20.5 45.7-45.7 45.7H179.1c-25.2 0-45.7-20.5-45.7-45.7V401.1h-67v444.6c0 62.3 50.5 112.7 112.7 112.7h668.2c62.3 0 112.7-50.5 112.7-112.7V401.1h-67z" fill="#a6cbdd" /><path d="M432.7 814.1c-18.5 0-33.5-15-33.5-33.5V387.9l-60.9 60.9c-13.1 13.1-34.3 13.1-47.4 0-13.1-13.1-13.1-34.3 0-47.4l90.4-90.5c14.3-14.3 35.6-18.5 54.2-10.8 18.6 7.7 30.7 25.7 30.7 45.9v434.6c0 18.5-15 33.5-33.5 33.5zM610 814.1c-6.4 0-12.9-1.2-19.1-3.8-18.6-7.7-30.7-25.7-30.7-45.9V329.8c0-18.5 15-33.5 33.5-33.5s33.5 15 33.5 33.5v392.8l60.9-60.9c13.1-13.1 34.3-13.1 47.4 0 13.1 13.1 13.1 34.3 0 47.4l-90.4 90.5c-9.6 9.5-22.2 14.5-35.1 14.5z" fill="#60a9d1" /><path d="M97.5 481C79 481 64 465.9 64 447.4V162.6c0-39.9 22.9-74.2 59.7-89.4C160.6 58 201 66 229.2 94.2l97.3 97.3c13.1 13.1 13.1 34.3 0 47.4-13.1 13.1-34.3 13.1-47.4 0l-97.3-97.3c-13-13-28.1-8.2-32.4-6.5-4.3 1.8-18.4 9.1-18.4 27.5v284.8c0 18.5-15 33.6-33.5 33.6z" fill="#a6cbdd" /><path d="M926.5 481c-18.5 0-33.5-15-33.5-33.5V162.6c0-18.5-14.1-25.7-18.4-27.5-4.3-1.7-19.4-6.6-32.4 6.5l-97.3 97.3c-13.1 13.1-34.3 13.1-47.4 0-13.1-13.1-13.1-34.3 0-47.4l97.3-97.3C823 66 863.4 58 900.2 73.2c36.9 15.3 59.8 49.5 59.8 89.4v284.8c0 18.5-15 33.6-33.5 33.6z" fill="#a6cbdd" /></svg>