<?xml version="1.0" standalone="no"?><!DOCTYPE svg PUBLIC "-//W3C//DTD SVG 1.1//EN" "http://www.w3.org/Graphics/SVG/1.1/DTD/svg11.dtd"><svg class="icon" width="200px" height="200.00px" viewBox="0 0 1024 1024" version="1.1" xmlns="http://www.w3.org/2000/svg"><path d="M531.6 899.8c-12.3 0-24.5-3.3-35.3-9.9L286 761.3c-8.6-5.2-18.6-8-28.9-8H152.6c-36.4 0-65.9-28.5-65.9-63.6V334c0-35.1 29.6-63.6 65.9-63.6h104.5c10.3 0 20.3-2.8 28.9-8l210.3-128.5c20.8-12.8 47.2-13.2 68.5-1.2 20.5 11.5 32.7 32 32.7 55v648.5c0 22.9-12.3 43.5-32.8 55-10.2 5.7-21.7 8.6-33.1 8.6z m-379-572.6c-5 0-9.2 3.1-9.2 6.8v355.7c0 3.3 3.7 6.8 9.2 6.8h104.5c20.7 0 41 5.7 58.5 16.4l210.3 128.5c5.1 3.1 9.8 1 11.2 0.1 2.5-1.4 3.8-3.3 3.8-5.5V187.6c0-2.2-1.3-4.1-3.8-5.5-1.3-0.7-6.1-3-11.2 0.2L315.6 310.8c-17.5 10.7-37.7 16.3-58.5 16.3H152.6zM720.6 672.7c-9.1 0-17.9-4.3-23.4-12.3-8.9-12.9-5.6-30.6 7.3-39.5 40.3-27.7 63.4-67.5 63.4-109.1 0-41.6-23.1-81.3-63.4-109.1-12.9-8.9-16.2-26.6-7.3-39.5 8.9-12.9 26.5-16.2 39.5-7.3 55.9 38.5 88 95.3 88 155.9 0 60.5-32.1 117.3-88 155.9-4.9 3.4-10.5 5-16.1 5z" fill="#7dc2fa" /><path d="M796.3 748.4c-9.2 0-18.2-4.4-23.7-12.7-8.6-13-5.1-30.7 7.9-39.4 63.2-42 100.9-110.9 100.9-184.5s-37.7-142.6-100.9-184.6c-13.1-8.6-16.6-26.3-7.9-39.3 8.6-13 26.4-16.6 39.3-7.9 79.1 52.6 126.2 139.2 126.2 231.8 0 92.6-47.2 179.3-126.2 231.8-4.7 3.3-10.2 4.8-15.6 4.8z" fill="#999999" /></svg>